<svg width="235" height="236" viewBox="0 0 235 236" fill="none" xmlns="http://www.w3.org/2000/svg">
<g clip-path="url(#clip0_5227_16512)">
<path d="M117.826 5.93144C145.545 4.29929 169.328 14.2272 185.403 31.5567C201.479 48.8876 209.891 73.6725 206.762 101.838C200.505 158.222 150.38 206.599 94.8875 209.867C67.1682 211.499 43.3841 201.569 27.3094 184.239C11.2336 166.907 2.8222 142.123 5.95126 113.962C12.2082 57.577 62.325 9.20632 117.826 5.93144ZM100.231 185.294C99.6101 184.628 98.71 184.272 97.72 184.331C95.7925 184.447 94.1157 186.082 93.896 188.011L93.8959 188.013L92.2767 202.602L92.2757 202.602L92.2756 202.604C92.1679 203.594 92.4611 204.518 93.0797 205.184C93.6999 205.851 94.5986 206.206 95.5912 206.146L95.5922 206.147C97.5157 206.031 99.2057 204.4 99.4172 202.465L101.036 187.876C101.148 186.882 100.852 185.958 100.231 185.294ZM59.7232 175.921L59.4892 175.93C58.2721 176.003 57.0668 176.708 56.328 177.826L56.327 177.828L47.7388 190.892C46.6497 192.548 46.8329 194.827 48.6065 195.819L48.6103 195.821C49.1651 196.127 49.7776 196.255 50.3935 196.22L50.3994 196.219C51.6129 196.141 52.8242 195.448 53.5689 194.312L53.5699 194.313L62.1576 181.257L62.1577 181.256C63.2507 179.594 63.0489 177.321 61.2854 176.324L61.2844 176.323L61.0741 176.216C60.6486 176.017 60.1896 175.919 59.7232 175.921ZM138.55 171.277L138.317 171.283C137.798 171.314 137.257 171.458 136.745 171.733L136.528 171.859C134.853 172.879 133.968 175.034 134.789 176.784L134.79 176.786L140.57 188.995L140.57 188.996C141.139 190.203 142.349 190.798 143.596 190.721L143.597 190.722C144.202 190.687 144.813 190.502 145.39 190.151L145.391 190.152C147.071 189.133 147.96 186.981 147.128 185.22L147.128 185.219L141.348 173.008C140.813 171.875 139.714 171.281 138.55 171.277ZM161.849 53.1015C150.189 40.5317 132.969 33.3706 112.989 34.5486C73.0898 36.894 37.148 71.6137 32.6515 112.1C30.4045 132.367 36.4566 150.292 48.1127 162.859C59.7701 175.428 76.9875 182.588 96.9639 181.41C136.559 179.075 172.249 144.886 177.196 104.813L177.307 103.866C179.559 83.596 173.506 65.6699 161.849 53.1015ZM36.811 149.841C36.1993 148.778 35.064 148.256 33.8923 148.33C33.3004 148.365 32.6806 148.546 32.1071 148.9L18.8595 156.93C17.1673 157.941 16.2778 160.103 17.1007 161.855L17.1025 161.858C17.6804 163.074 18.8915 163.659 20.1261 163.59L20.1271 163.59C20.7377 163.555 21.3561 163.36 21.9282 163.011L21.9292 163.012L35.1718 154.986L35.1727 154.987C36.8593 153.97 37.7527 151.811 36.9265 150.063L36.9266 150.061L36.811 149.841ZM172.223 140.677C171.663 140.363 171.038 140.248 170.441 140.283C169.215 140.352 168.003 141.056 167.267 142.188C166.175 143.841 166.364 146.116 168.13 147.115L168.131 147.115L179.764 153.678L179.765 153.679C180.326 153.995 180.952 154.108 181.554 154.074L181.553 154.073C182.776 154.004 183.988 153.298 184.729 152.176L184.729 152.175C185.787 150.567 185.636 148.379 184.016 147.345L183.854 147.248L172.225 140.678L172.223 140.677ZM27.9622 108.929L27.7772 108.935L13.4166 109.78C11.4793 109.888 9.80279 111.532 9.59065 113.46C9.35883 115.489 10.8506 117.13 12.8992 117.007L12.8983 117.006L27.2666 116.162C29.1414 116.05 30.7769 114.505 31.0683 112.658L31.0927 112.478C31.2005 111.488 30.9073 110.564 30.2886 109.898C29.7072 109.272 28.8811 108.922 27.9622 108.929ZM202.319 99.7617C201.7 99.0939 200.802 98.7375 199.811 98.7916L199.807 98.7914L185.437 99.6442C183.505 99.7528 181.831 101.4 181.612 103.324L181.612 103.328C181.504 104.315 181.798 105.238 182.415 105.904C183.035 106.572 183.933 106.931 184.928 106.871L184.927 106.87L199.296 106.026L199.297 106.026C201.226 105.91 202.902 104.266 203.121 102.347L203.121 102.343C203.229 101.352 202.937 100.428 202.319 99.7617ZM31.159 61.7171L31.1531 61.7178C29.9301 61.7957 28.7264 62.4899 27.9826 63.6237C26.8913 65.2829 27.0881 67.5585 28.8553 68.5487L28.8552 68.5497L40.4805 75.112C41.0469 75.4348 41.6637 75.549 42.2675 75.515L42.2684 75.516C43.5048 75.4474 44.7054 74.7276 45.4504 73.6145L45.4546 73.6079C46.5061 72.0034 46.3478 69.8215 44.7351 68.7812L44.5741 68.6835L32.9489 62.1202L32.9412 62.116C32.3866 61.8097 31.7747 61.6819 31.159 61.7171ZM195.602 53.9322C195.032 52.7248 193.82 52.1296 192.572 52.209C191.96 52.2449 191.354 52.4413 190.79 52.7758L190.784 52.7794L177.531 60.8118C175.856 61.8269 174.948 63.9871 175.787 65.7396L175.787 65.7386C176.358 66.9455 177.568 67.5373 178.81 67.4684L178.811 67.4685C179.425 67.4334 180.034 67.2374 180.599 66.9019L180.605 66.8982L193.858 58.8659L193.859 58.8659C195.534 57.8497 196.439 55.69 195.603 53.9323L195.602 53.9322ZM69.1176 25.0689L69.1166 25.0699C68.5066 25.1047 67.8872 25.2979 67.3227 25.6391C65.6355 26.657 64.7431 28.8179 65.5773 30.5727L71.3552 42.7779L71.3552 42.7788C71.8906 43.9266 73.0013 44.5092 74.1515 44.5206L74.3824 44.5157C74.995 44.4807 75.6053 44.2841 76.1666 43.945L76.1675 43.946C77.852 42.9307 78.7573 40.7712 77.9218 39.0128L77.9227 39.0128L72.1421 26.8017L72.1412 26.8007L72.0257 26.5798C71.412 25.514 70.2749 25.0039 69.1176 25.0689ZM164.1 19.9727C163.54 19.6581 162.914 19.5436 162.318 19.5787C161.091 19.6479 159.879 20.352 159.143 21.4854L150.548 34.5412L150.545 34.545C149.463 36.2059 149.663 38.4767 151.417 39.4739L151.421 39.4751C151.98 39.7897 152.606 39.904 153.202 39.869C154.435 39.7999 155.636 39.0916 156.383 37.9665L156.385 37.9627L164.965 24.9053C166.056 23.2471 165.869 20.9727 164.102 19.9738L164.1 19.9727ZM119.63 10.6144C119.011 9.94781 118.114 9.58995 117.125 9.64443L117.121 9.64426C115.192 9.76035 113.516 11.4046 113.296 13.3239L113.296 13.3258L111.677 27.915L111.677 27.9169C111.569 28.9068 111.861 29.8316 112.479 30.499C113.059 31.1265 113.886 31.4811 114.806 31.4741L114.992 31.4674C116.92 31.3514 118.597 29.7164 118.817 27.7877L118.817 27.7858L120.436 13.1976L120.436 13.1957C120.544 12.2035 120.249 11.28 119.63 10.6144Z" fill="url(#paint0_linear_5227_16512)" stroke="url(#paint1_linear_5227_16512)" stroke-width="1.7065"/>
<path d="M147.205 92.2832C146.719 90.495 146.099 88.7702 145.385 87.1029C144.326 84.6678 143.019 82.4221 141.489 80.3437C140.746 79.3362 140.323 78.0578 140.305 76.689C140.281 76.0116 140.319 75.3061 140.396 74.5946C141.003 69.1325 144.235 64.1503 148.682 61.0257C148.067 60.9844 147.442 60.9733 146.793 61.0074C140.421 61.3836 134.509 65.553 131.409 71.2248C125.288 67.5766 117.856 65.7175 109.619 66.2071C101.383 66.689 93.9978 69.2666 87.1841 73.421C85.201 68.2722 80.2539 64.9503 74.052 65.3107C73.3945 65.352 72.7508 65.4324 72.1208 65.5518C75.9248 68.1952 78.0912 72.8522 77.483 78.3449C77.2817 80.1426 76.3955 81.9036 75.0773 83.3082C67.5417 91.4825 62.3623 101.893 61.1241 113.024L59.6643 126.066C57.3382 146.997 76.5278 154.164 97.9728 152.896C120.276 151.587 144.247 144.338 147.094 118.703L148.295 107.886C148.914 102.332 148.509 97.0729 147.205 92.2832ZM95.8581 112.148C95.8327 112.377 95.8077 112.599 95.7502 112.858C92.7145 115.804 88.7502 117.75 84.5973 117.997C76.4695 118.476 70.5808 112.317 71.2193 104.166C71.2266 103.997 71.234 103.828 71.265 103.645C71.2907 103.408 71.3168 103.163 71.3723 102.95C73.1998 101.183 75.3676 99.7529 77.713 98.8529C79.2504 98.2646 80.8785 97.8953 82.5412 97.7965C90.8237 97.3089 96.7934 103.733 95.8581 112.148ZM106.405 119.742C106.217 121.417 104.013 124.583 102.369 126.727C101.952 127.278 101.345 127.575 100.773 127.612C100.201 127.642 99.6553 127.411 99.3455 126.906C98.1819 124.92 96.6585 121.981 96.8468 120.306C97.1402 117.628 99.531 115.324 102.16 115.174C104.797 115.016 106.707 117.041 106.405 119.742ZM136.307 99.8927C135.371 108.315 127.901 115.516 119.595 116.011C115.435 116.25 111.859 114.746 109.435 112.122C109.445 111.892 109.471 111.647 109.497 111.418C110.432 103.011 117.911 95.787 126.193 95.2994C130.361 95.0529 133.953 96.5498 136.36 99.2032C136.359 99.4107 136.333 99.6556 136.307 99.8927Z" fill="#3D00A0"/>
<path d="M147.205 92.2832C146.719 90.495 146.099 88.7702 145.385 87.1029C144.326 84.6678 143.019 82.4221 141.489 80.3437C140.746 79.3362 140.323 78.0578 140.305 76.689C140.281 76.0116 140.319 75.3061 140.396 74.5946C141.003 69.1325 144.235 64.1503 148.682 61.0257C148.067 60.9844 147.442 60.9733 146.793 61.0074C140.421 61.3836 134.509 65.553 131.409 71.2248C125.288 67.5766 117.856 65.7175 109.619 66.2071C101.383 66.689 93.9978 69.2666 87.1841 73.421C85.201 68.2722 80.2539 64.9503 74.052 65.3107C73.3945 65.352 72.7508 65.4324 72.1208 65.5518C75.9248 68.1952 78.0912 72.8522 77.483 78.3449C77.2817 80.1426 76.3955 81.9036 75.0773 83.3082C67.5417 91.4825 62.3623 101.893 61.1241 113.024L59.6643 126.066C57.3382 146.997 76.5278 154.164 97.9728 152.896C120.276 151.587 144.247 144.338 147.094 118.703L148.295 107.886C148.914 102.332 148.509 97.0729 147.205 92.2832ZM95.8581 112.148C95.8327 112.377 95.8077 112.599 95.7502 112.858C92.7145 115.804 88.7502 117.75 84.5973 117.997C76.4695 118.476 70.5808 112.317 71.2193 104.166C71.2266 103.997 71.234 103.828 71.265 103.645C71.2907 103.408 71.3168 103.163 71.3723 102.95C73.1998 101.183 75.3676 99.7529 77.713 98.8529C79.2504 98.2646 80.8785 97.8953 82.5412 97.7965C90.8237 97.3089 96.7934 103.733 95.8581 112.148ZM106.405 119.742C106.217 121.417 104.013 124.583 102.369 126.727C101.952 127.278 101.345 127.575 100.773 127.612C100.201 127.642 99.6553 127.411 99.3455 126.906C98.1819 124.92 96.6585 121.981 96.8468 120.306C97.1402 117.628 99.531 115.324 102.16 115.174C104.797 115.016 106.707 117.041 106.405 119.742ZM136.307 99.8927C135.371 108.315 127.901 115.516 119.595 116.011C115.435 116.25 111.859 114.746 109.435 112.122C109.445 111.892 109.471 111.647 109.497 111.418C110.432 103.011 117.911 95.787 126.193 95.2994C130.361 95.0529 133.953 96.5498 136.36 99.2032C136.359 99.4107 136.333 99.6556 136.307 99.8927Z" fill="url(#paint2_linear_5227_16512)"/>
<path d="M136.356 99.2035C136.354 99.411 136.328 99.6558 136.302 99.893C135.367 108.316 127.897 115.517 119.591 116.011C115.43 116.25 111.855 114.746 109.431 112.123C109.441 111.893 109.467 111.648 109.492 111.418C110.427 103.011 117.906 95.7873 126.188 95.2997C130.357 95.0532 133.948 96.55 136.356 99.2035Z" fill="#E6E6E6"/>
<path d="M106.4 119.742C106.212 121.417 104.008 124.583 102.364 126.727C101.947 127.278 101.34 127.575 100.768 127.613C100.196 127.642 99.6505 127.412 99.3406 126.907C98.1771 124.921 96.6537 121.982 96.8419 120.306C97.1354 117.629 99.5262 115.324 102.155 115.174C104.792 115.016 106.703 117.042 106.4 119.742Z" fill="#E6E6E6"/>
<path d="M95.8572 112.148C95.8318 112.378 95.8068 112.599 95.7493 112.858C92.7136 115.804 88.7493 117.75 84.5964 117.998C76.4686 118.476 70.58 112.317 71.2185 104.166C71.2258 103.997 71.2331 103.829 71.2642 103.645C71.2899 103.408 71.3159 103.163 71.3714 102.951C73.199 101.183 75.3668 99.753 77.7121 98.853C79.2495 98.2647 80.8776 97.8955 82.5404 97.7967C90.8228 97.3091 96.7926 103.733 95.8572 112.148Z" fill="#E6E6E6"/>
<path d="M142.809 40.5485C135.922 38.7202 128.465 37.9592 120.601 38.4183C78.4999 40.9042 40.5182 77.5742 35.773 120.338C34.9772 127.49 35.1655 134.362 36.2196 140.832C44.3848 165.841 67.5924 182.286 96.9097 180.559C136.389 178.231 172.003 143.851 176.455 103.773C179.678 74.7875 165.716 50.7477 142.809 40.5485ZM59.6608 126.067L61.1207 113.024C62.3588 101.893 67.5383 91.4827 75.0738 83.3084C76.392 81.9038 77.2782 80.1427 77.4805 78.3221C78.0878 72.8523 75.9214 68.1953 72.1174 65.552C72.7474 65.4326 73.3911 65.3522 74.0485 65.3108C79.5392 64.9895 84.0408 67.5548 86.375 71.7193C86.6832 72.2626 86.9518 72.8274 87.1806 73.4212C87.5294 73.2054 87.8778 72.9972 88.2336 72.797C94.7538 69.0069 101.805 66.661 109.616 66.2072C117.852 65.7177 125.285 67.5768 131.406 71.225C134.505 65.5532 140.417 61.3837 146.79 61.0075C147.439 60.9735 148.063 60.9845 148.679 61.0259C144.231 64.1505 140.999 69.1327 140.393 74.5947C140.327 75.2299 140.284 75.8583 140.296 76.466C140.293 76.5427 140.29 76.6118 140.302 76.6891C140.32 78.058 140.743 79.3363 141.486 80.3439C143.016 82.4222 144.322 84.668 145.381 87.103C146.096 88.7703 146.715 90.4951 147.201 92.2834C148.505 97.073 148.91 102.332 148.292 107.886L147.09 118.703C144.244 144.338 120.272 151.587 97.9693 152.896C83.6315 153.742 70.2978 150.819 63.7377 142.533C60.4832 138.422 58.89 132.997 59.6608 126.067Z" fill="url(#paint3_linear_5227_16512)"/>
<path d="M142.812 40.5482C135.925 38.7199 128.468 37.9588 120.604 38.418C78.503 40.9038 40.5213 77.5738 35.7761 120.337C34.9803 127.49 35.1685 134.361 36.2227 140.831C33.3886 132.18 32.3579 122.499 33.5062 112.194C37.958 72.1084 73.565 37.7283 113.036 35.4003C123.964 34.7555 134.041 36.6342 142.812 40.5482Z" fill="#221F46"/>
<path d="M181.436 26.4174L202.804 45.982C222.028 63.573 232.415 90.5438 228.976 121.495C222.667 178.273 172.223 226.983 116.303 230.283C90.8673 231.783 68.6813 223.628 52.6405 208.946L31.2727 189.381C47.3136 204.063 69.4996 212.218 94.9348 210.719C150.855 207.426 201.299 158.716 207.608 101.931C211.047 70.9715 200.653 44.008 181.436 26.4174Z" fill="url(#paint4_linear_5227_16512)"/>
<g filter="url(#filter0_d_5227_16512)">
<path d="M100.185 187.783L98.5657 202.372C98.3991 203.902 97.039 205.205 95.5387 205.295C94.0306 205.385 92.9547 204.225 93.1212 202.695L94.7406 188.106C94.9149 186.577 96.2672 185.273 97.7676 185.183C99.2679 185.093 100.359 186.253 100.185 187.783Z" fill="url(#paint5_linear_5227_16512)"/>
<path d="M61.4389 180.788L52.8511 193.845C52.2481 194.765 51.2758 195.308 50.3398 195.368C49.8759 195.395 49.4249 195.299 49.0181 195.074C47.7981 194.392 47.5461 192.729 48.4462 191.36L57.0344 178.296C57.637 177.384 58.6096 176.833 59.5453 176.781C60.0096 176.747 60.4605 176.842 60.8596 177.067C62.0794 177.756 62.339 179.42 61.4389 180.788Z" fill="url(#paint6_linear_5227_16512)"/>
<path d="M34.7262 154.257L21.4813 162.283C21.0217 162.563 20.5371 162.711 20.0731 162.738C19.1375 162.791 18.277 162.355 17.867 161.492C17.2667 160.214 17.8965 158.496 19.2902 157.663L32.5431 149.63C32.995 149.35 33.4793 149.209 33.9356 149.182C34.8792 149.122 35.7394 149.566 36.1494 150.428C36.75 151.699 36.1202 153.417 34.7262 154.257Z" fill="url(#paint7_linear_5227_16512)"/>
<path d="M30.2387 112.387C30.0725 113.91 28.7198 115.221 27.2117 115.311L12.8431 116.156C11.3428 116.246 10.2595 115.078 10.4334 113.556C10.6 112.026 11.9526 110.715 13.4604 110.633L27.8213 109.787C29.3293 109.697 30.4053 110.857 30.2387 112.387Z" fill="url(#paint8_linear_5227_16512)"/>
<path d="M44.7361 73.141C44.1257 74.0529 43.1605 74.6116 42.2171 74.664C41.7532 74.6905 41.3019 74.6022 40.8954 74.3698L29.2699 67.8065C28.0498 67.1247 27.7902 65.4612 28.6903 64.0928C29.2932 63.1729 30.2578 62.6295 31.2015 62.5695C31.6654 62.543 32.1164 62.6389 32.5232 62.8637L44.1487 69.427C45.3685 70.1165 45.6281 71.7799 44.7361 73.141Z" fill="url(#paint9_linear_5227_16512)"/>
<path d="M75.7221 43.2154C75.2706 43.4884 74.7936 43.6373 74.3297 43.6638C73.394 43.7165 72.5259 43.2802 72.1236 42.4177L66.3428 30.2064C65.7348 28.9279 66.3646 27.2098 67.7586 26.3695C68.2101 26.0965 68.6948 25.9479 69.1588 25.9214C70.0944 25.8688 70.9549 26.3048 71.3649 27.1676L77.1457 39.3789C77.7536 40.6574 77.1161 42.3751 75.7221 43.2154Z" fill="url(#paint10_linear_5227_16512)"/>
<path d="M119.585 13.104L117.966 27.6925C117.792 29.2224 116.439 30.5256 114.939 30.6159C113.431 30.7058 112.355 29.5382 112.522 28.0081L114.141 13.4196C114.315 11.8974 115.668 10.5865 117.168 10.4962C118.668 10.4136 119.752 11.5739 119.585 13.104Z" fill="url(#paint11_linear_5227_16512)"/>
<path d="M164.248 24.4386L155.667 37.4954C155.057 38.4149 154.092 38.9659 153.149 39.0183C152.692 39.0451 152.233 38.9565 151.834 38.7322C150.622 38.043 150.363 36.3795 151.255 35.0108L159.85 21.9546C160.446 21.0344 161.418 20.4837 162.362 20.4313C162.818 20.4045 163.277 20.4931 163.676 20.7175C164.896 21.407 165.148 23.0701 164.248 24.4386Z" fill="url(#paint12_linear_5227_16512)"/>
<path d="M193.411 58.1366L180.158 66.1692C179.699 66.4418 179.222 66.5907 178.758 66.6172C177.815 66.6696 176.955 66.2259 176.552 65.3711C175.944 64.1003 176.581 62.3825 177.968 61.5419L191.221 53.5093C191.68 53.2367 192.157 53.0878 192.621 53.0613C193.564 53.0012 194.425 53.445 194.827 54.2997C195.435 55.5783 194.798 57.296 193.411 58.1366Z" fill="url(#paint13_linear_5227_16512)"/>
<path d="M202.271 102.251C202.097 103.773 200.744 105.084 199.244 105.174L184.875 106.02C183.367 106.11 182.291 104.942 182.458 103.42C182.632 101.89 183.985 100.579 185.485 100.496L199.853 99.6433C201.361 99.5611 202.437 100.721 202.271 102.251Z" fill="url(#paint14_linear_5227_16512)"/>
<path d="M184.012 151.707C183.409 152.619 182.437 153.169 181.501 153.222C181.037 153.249 180.578 153.16 180.179 152.936L168.546 146.372C167.326 145.682 167.074 144.019 167.974 142.659C168.569 141.738 169.542 141.188 170.485 141.135C170.941 141.108 171.4 141.197 171.799 141.421L183.432 147.993C184.652 148.675 184.912 150.338 184.012 151.707Z" fill="url(#paint15_linear_5227_16512)"/>
<path d="M144.942 189.422C144.483 189.702 144.006 189.844 143.542 189.87C142.598 189.93 141.738 189.487 141.336 188.632L135.555 176.42C134.955 175.142 135.584 173.424 136.971 172.584C137.422 172.303 137.907 172.162 138.363 172.135C139.307 172.075 140.167 172.519 140.57 173.374L146.35 185.585C146.958 186.871 146.328 188.581 144.942 189.422Z" fill="url(#paint16_linear_5227_16512)"/>
</g>
</g>
<defs>
<filter id="filter0_d_5227_16512" x="1.88212" y="3.66618" width="212.351" height="215.286" filterUnits="userSpaceOnUse" color-interpolation-filters="sRGB">
<feFlood flood-opacity="0" result="BackgroundImageFix"/>
<feColorMatrix in="SourceAlpha" type="matrix" values="0 0 0 0 0 0 0 0 0 0 0 0 0 0 0 0 0 0 127 0" result="hardAlpha"/>
<feOffset dx="1.7065" dy="3.413"/>
<feGaussianBlur stdDeviation="5.1195"/>
<feComposite in2="hardAlpha" operator="out"/>
<feColorMatrix type="matrix" values="0 0 0 0 0 0 0 0 0 0 0 0 0 0 0 0 0 0 0.25 0"/>
<feBlend mode="normal" in2="BackgroundImageFix" result="effect1_dropShadow_5227_16512"/>
<feBlend mode="normal" in="SourceGraphic" in2="effect1_dropShadow_5227_16512" result="shape"/>
</filter>
<linearGradient id="paint0_linear_5227_16512" x1="12.73" y1="196.036" x2="204.301" y2="24.588" gradientUnits="userSpaceOnUse">
<stop stop-color="#1C006E"/>
<stop offset="1" stop-color="#5B00CA"/>
</linearGradient>
<linearGradient id="paint1_linear_5227_16512" x1="23.352" y1="16.9039" x2="189.013" y2="205.109" gradientUnits="userSpaceOnUse">
<stop stop-color="#D6D2FF"/>
<stop offset="1" stop-color="#B5AFFF" stop-opacity="0.1"/>
</linearGradient>
<linearGradient id="paint2_linear_5227_16512" x1="63.6747" y1="146.519" x2="150.455" y2="72.3053" gradientUnits="userSpaceOnUse">
<stop stop-color="#1C006E"/>
<stop offset="1" stop-color="#5B00CA"/>
</linearGradient>
<linearGradient id="paint3_linear_5227_16512" x1="72.9666" y1="123.338" x2="103.133" y2="181.174" gradientUnits="userSpaceOnUse">
<stop stop-color="#E6D4FF"/>
<stop offset="1" stop-color="#A3A5FF"/>
</linearGradient>
<linearGradient id="paint4_linear_5227_16512" x1="123.011" y1="183.369" x2="126.979" y2="231.247" gradientUnits="userSpaceOnUse">
<stop stop-color="#211F46"/>
<stop offset="1" stop-color="#38348D"/>
</linearGradient>
<linearGradient id="paint5_linear_5227_16512" x1="95.0663" y1="197.334" x2="99.487" y2="200.089" gradientUnits="userSpaceOnUse">
<stop stop-color="#E6D4FF"/>
<stop offset="1" stop-color="#A3A5FF"/>
</linearGradient>
<linearGradient id="paint6_linear_5227_16512" x1="51.7257" y1="187.967" x2="56.3051" y2="194.268" gradientUnits="userSpaceOnUse">
<stop stop-color="#E6D4FF"/>
<stop offset="1" stop-color="#A3A5FF"/>
</linearGradient>
<linearGradient id="paint7_linear_5227_16512" x1="22.6798" y1="157.29" x2="25.1231" y2="163.639" gradientUnits="userSpaceOnUse">
<stop stop-color="#E6D4FF"/>
<stop offset="1" stop-color="#A3A5FF"/>
</linearGradient>
<linearGradient id="paint8_linear_5227_16512" x1="15.7115" y1="113.527" x2="16.2693" y2="117.093" gradientUnits="userSpaceOnUse">
<stop stop-color="#E6D4FF"/>
<stop offset="1" stop-color="#A3A5FF"/>
</linearGradient>
<linearGradient id="paint9_linear_5227_16512" x1="32.6238" y1="69.6897" x2="34.4123" y2="75.1093" gradientUnits="userSpaceOnUse">
<stop stop-color="#E6D4FF"/>
<stop offset="1" stop-color="#A3A5FF"/>
</linearGradient>
<linearGradient id="paint10_linear_5227_16512" x1="68.9312" y1="36.5488" x2="73.2203" y2="42.1232" gradientUnits="userSpaceOnUse">
<stop stop-color="#E6D4FF"/>
<stop offset="1" stop-color="#A3A5FF"/>
</linearGradient>
<linearGradient id="paint11_linear_5227_16512" x1="114.466" y1="22.6522" x2="118.887" y2="25.4059" gradientUnits="userSpaceOnUse">
<stop stop-color="#E6D4FF"/>
<stop offset="1" stop-color="#A3A5FF"/>
</linearGradient>
<linearGradient id="paint12_linear_5227_16512" x1="154.541" y1="31.6194" x2="159.12" y2="37.9185" gradientUnits="userSpaceOnUse">
<stop stop-color="#E6D4FF"/>
<stop offset="1" stop-color="#A3A5FF"/>
</linearGradient>
<linearGradient id="paint13_linear_5227_16512" x1="181.361" y1="61.1692" x2="183.805" y2="67.5177" gradientUnits="userSpaceOnUse">
<stop stop-color="#E6D4FF"/>
<stop offset="1" stop-color="#A3A5FF"/>
</linearGradient>
<linearGradient id="paint14_linear_5227_16512" x1="187.739" y1="103.388" x2="188.297" y2="106.957" gradientUnits="userSpaceOnUse">
<stop stop-color="#E6D4FF"/>
<stop offset="1" stop-color="#A3A5FF"/>
</linearGradient>
<linearGradient id="paint15_linear_5227_16512" x1="171.905" y1="148.25" x2="173.692" y2="153.668" gradientUnits="userSpaceOnUse">
<stop stop-color="#E6D4FF"/>
<stop offset="1" stop-color="#A3A5FF"/>
</linearGradient>
<linearGradient id="paint16_linear_5227_16512" x1="138.145" y1="182.759" x2="142.434" y2="188.329" gradientUnits="userSpaceOnUse">
<stop stop-color="#E6D4FF"/>
<stop offset="1" stop-color="#A3A5FF"/>
</linearGradient>
<clipPath id="clip0_5227_16512">
<rect width="224.488" height="226.094" fill="white" transform="matrix(0.999108 0.0422378 -0.0432817 0.999063 9.78572 0)"/>
</clipPath>
</defs>
</svg>
